
<svg xmlns="http://www.w3.org/2000/svg" width="128" height="128"><style>path{fill:#000} @media (prefers-color-scheme:dark){path{fill:#fff}}</style><g style="display:inline"><g style="font-style:normal;font-variant:normal;font-weight:300;font-stretch:normal;font-size:97.33333588px;line-height:1.25;font-family:Roboto;-inkscape-font-specification:'Roboto, Light';font-variant-ligatures:normal;font-variant-caps:normal;font-variant-numeric:normal;font-feature-settings:normal;text-align:center;letter-spacing:2px;word-spacing:0;writing-mode:lr-tb;text-anchor:middle;fill-opacity:1;stroke:none"><path d="M30.775 108.714q-8.698-2.614-12.405-8.27-3.66-5.607-3.66-13.687v-10.74q0-5.799-2.708-9.03-2.662-3.28-8.27-3.28v-4.943q5.608 0 8.27-3.184 2.709-3.184 2.709-9.03V35.714q0-8.127 3.66-13.782 3.706-5.703 12.404-8.317l1.235 3.754q-6.035 1.949-8.84 6.749-2.756 4.8-2.756 11.596V46.55q0 5.228-2.186 9.078-2.139 3.85-6.559 5.608 4.42 1.853 6.559 5.75 2.186 3.85 2.186 9.03v10.741q0 6.796 2.804 11.454 2.852 4.705 8.935 6.701zm52.52-36.167q0-5.656-4.23-9.22-4.23-3.612-14.733-6.369-11.359-2.851-17.204-7.414-5.846-4.562-5.846-12.309 0-7.937 6.511-12.927 6.559-4.99 16.824-4.99 10.694 0 17.252 5.94 6.559 5.941 6.369 14.496l-.143.285h-5.228q0-6.939-4.943-11.406-4.895-4.468-13.307-4.468-8.317 0-13.022 3.707-4.658 3.707-4.658 9.22 0 5.228 4.325 8.745 4.325 3.47 14.924 6.131 11.168 2.852 16.966 7.7 5.846 4.847 5.846 12.784 0 8.27-6.796 13.165-6.749 4.895-17.252 4.895-10.36 0-18.108-5.18-7.699-5.228-7.461-15.209l.095-.285h5.228q0 8.08 6.036 11.976 6.035 3.898 14.21 3.898 8.222 0 13.26-3.612 5.085-3.612 5.085-9.553zm12.313 32.365q6.036-1.996 8.887-6.701 2.852-4.658 2.852-11.454v-10.74q0-5.324 2.234-9.173 2.233-3.85 6.939-5.56-4.706-1.664-6.94-5.514-2.233-3.85-2.233-9.22V35.714q0-6.844-2.804-11.596-2.757-4.8-8.792-6.749l1.235-3.754q8.65 2.614 12.357 8.317 3.707 5.655 3.707 13.782V46.55q0 5.798 2.662 9.03 2.661 3.184 8.317 3.184v4.943q-5.656 0-8.317 3.28-2.662 3.231-2.662 9.03v10.74q0 8.08-3.707 13.688-3.66 5.655-12.357 8.27z" style="font-style:normal;font-variant:normal;font-weight:300;font-stretch:normal;font-size:97.33333588px;font-family:Roboto;-inkscape-font-specification:'Roboto, Light';font-variant-ligatures:normal;font-variant-caps:normal;font-variant-numeric:normal;font-feature-settings:normal;text-align:center;letter-spacing:2px;writing-mode:lr-tb;text-anchor:middle;fill-opacity:1" transform="translate(.12 2.836)" aria-label="{S}"/></g></g></svg>