<?xml version="1.0" encoding="UTF-8" standalone="no"?>
<!-- Created with Inkscape (http://www.inkscape.org/) -->

<svg
   xmlns:dc="http://purl.org/dc/elements/1.1/"
   xmlns:cc="http://creativecommons.org/ns#"
   xmlns:rdf="http://www.w3.org/1999/02/22-rdf-syntax-ns#"
   xmlns:svg="http://www.w3.org/2000/svg"
   xmlns="http://www.w3.org/2000/svg"
   xmlns:sodipodi="http://sodipodi.sourceforge.net/DTD/sodipodi-0.dtd"
   xmlns:inkscape="http://www.inkscape.org/namespaces/inkscape"
   width="128px"
   height="128px"
   viewBox="0 0 128 128"
   version="1.1"
   id="SVGRoot"
   inkscape:version="0.92.4 (5da689c313, 2019-01-14)"
   sodipodi:docname="icon.svg"
   inkscape:export-filename="C:\Users\szymon\Desktop\icon.png"
   inkscape:export-xdpi="96"
   inkscape:export-ydpi="96">
  <defs
     id="defs10" />
  <sodipodi:namedview
     id="base"
     pagecolor="#ffffff"
     bordercolor="#666666"
     borderopacity="1.0"
     inkscape:pageopacity="0.0"
     inkscape:pageshadow="2"
     inkscape:zoom="2"
     inkscape:cx="-63.320545"
     inkscape:cy="44.145976"
     inkscape:document-units="px"
     inkscape:current-layer="layer1"
     showgrid="false"
     inkscape:window-width="1920"
     inkscape:window-height="1017"
     inkscape:window-x="1912"
     inkscape:window-y="-8"
     inkscape:window-maximized="1"
     inkscape:grid-bbox="true"
     inkscape:snap-text-baseline="true" />
  <metadata
     id="metadata13">
    <rdf:RDF>
      <cc:Work
         rdf:about="">
        <dc:format>image/svg+xml</dc:format>
        <dc:type
           rdf:resource="http://purl.org/dc/dcmitype/StillImage" />
        <dc:title></dc:title>
      </cc:Work>
    </rdf:RDF>
  </metadata>
  <g
     inkscape:label="Layer 1"
     inkscape:groupmode="layer"
     id="layer1"
     style="display:inline">
    <g
       aria-label="{S}"
       style="font-style:normal;font-variant:normal;font-weight:300;font-stretch:normal;font-size:97.33333588px;line-height:1.25;font-family:Roboto;-inkscape-font-specification:'Roboto, Light';font-variant-ligatures:normal;font-variant-caps:normal;font-variant-numeric:normal;font-feature-settings:normal;text-align:center;letter-spacing:2px;word-spacing:0px;writing-mode:lr-tb;text-anchor:middle;fill:#292929;fill-opacity:1;stroke:none"
       id="flowRoot23"
       transform="translate(0.1194698,2.835608)">
      <path
         d="M 30.774739,108.7142 Q 22.077473,106.10026 18.370442,100.44466 14.710936,94.836591 14.710936,86.757164 V 76.016278 q 0,-5.798177 -2.708984,-9.029948 -2.6614586,-3.279297 -8.2695316,-3.279297 v -4.942709 q 5.608073,0 8.2695316,-3.184244 2.708984,-3.184245 2.708984,-9.029949 V 35.714194 q 0,-8.126954 3.659506,-13.782553 3.707031,-5.703125 12.404297,-8.317057 l 1.235677,3.754557 q -6.035808,1.948568 -8.839844,6.748698 -2.756511,4.800131 -2.756511,11.596355 v 10.835937 q 0,5.227865 -2.186198,9.077475 -2.138671,3.849609 -6.558593,5.608073 4.419922,1.853515 6.558593,5.750651 2.186198,3.849609 2.186198,9.029948 v 10.740886 q 0,6.796224 2.804037,11.453776 2.851563,4.70508 8.934896,6.70117 z"
         style="font-style:normal;font-variant:normal;font-weight:300;font-stretch:normal;font-size:97.33333588px;font-family:Roboto;-inkscape-font-specification:'Roboto, Light';font-variant-ligatures:normal;font-variant-caps:normal;font-variant-numeric:normal;font-feature-settings:normal;text-align:center;letter-spacing:2px;writing-mode:lr-tb;text-anchor:middle;fill:#292929;fill-opacity:1"
         id="path4552"
         inkscape:connector-curvature="0" />
      <path
         d="m 83.294923,72.546877 q 0,-5.655599 -4.229818,-9.220052 -4.229818,-3.61198 -14.733073,-6.36849 -11.358725,-2.851563 -17.204428,-7.414063 -5.845703,-4.5625 -5.845703,-12.309245 0,-7.936849 6.511068,-12.927084 6.558594,-4.990234 16.824219,-4.990234 10.69336,0 17.251954,5.940755 6.558593,5.940756 6.368489,14.495443 l -0.142578,0.285157 h -5.227865 q 0,-6.938803 -4.942708,-11.406251 -4.895182,-4.467448 -13.307292,-4.467448 -8.317058,0 -13.022136,3.707032 -4.657552,3.707031 -4.657552,9.220052 0,5.227865 4.32487,8.744792 4.32487,3.469401 14.923177,6.130859 11.16862,2.851563 16.966798,7.699219 5.845703,4.847657 5.845703,12.784506 0,8.269531 -6.796224,13.164714 -6.748698,4.895182 -17.251954,4.895182 -10.360677,0 -18.107422,-5.180339 -7.699219,-5.227864 -7.461589,-15.208333 l 0.09505,-0.285157 h 5.227865 q 0,8.079428 6.035807,11.976563 6.035808,3.897136 14.210287,3.897136 8.222006,0 13.259766,-3.611979 5.085287,-3.61198 5.085287,-9.552735 z"
         style="font-style:normal;font-variant:normal;font-weight:300;font-stretch:normal;font-size:97.33333588px;font-family:Roboto;-inkscape-font-specification:'Roboto, Light';font-variant-ligatures:normal;font-variant-caps:normal;font-variant-numeric:normal;font-feature-settings:normal;text-align:center;letter-spacing:2px;writing-mode:lr-tb;text-anchor:middle;fill:#292929;fill-opacity:1"
         id="path4554"
         inkscape:connector-curvature="0" />
      <path
         d="m 95.608071,104.91211 q 6.035809,-1.99609 8.887369,-6.70117 2.85156,-4.657552 2.85156,-11.453776 V 76.016278 q 0,-5.322917 2.23373,-9.172526 2.23372,-3.84961 6.9388,-5.560547 -4.70508,-1.663412 -6.9388,-5.513021 -2.23373,-3.84961 -2.23373,-9.220053 V 35.714194 q 0,-6.843751 -2.80403,-11.596355 -2.75651,-4.80013 -8.792321,-6.748698 l 1.235678,-3.754557 q 8.649743,2.613932 12.356773,8.317057 3.70703,5.655599 3.70703,13.782553 v 10.835937 q 0,5.798178 2.66146,9.029949 2.66146,3.184244 8.31705,3.184244 v 4.942709 q -5.65559,0 -8.31705,3.279297 -2.66146,3.231771 -2.66146,9.029948 v 10.740886 q 0,8.079427 -3.70703,13.687496 -3.65951,5.6556 -12.356773,8.26954 z"
         style="font-style:normal;font-variant:normal;font-weight:300;font-stretch:normal;font-size:97.33333588px;font-family:Roboto;-inkscape-font-specification:'Roboto, Light';font-variant-ligatures:normal;font-variant-caps:normal;font-variant-numeric:normal;font-feature-settings:normal;text-align:center;letter-spacing:2px;writing-mode:lr-tb;text-anchor:middle;fill:#292929;fill-opacity:1"
         id="path4556"
         inkscape:connector-curvature="0" />
    </g>
  </g>
</svg>
